<svg id="Layer_2" data-name="Layer 2" xmlns="http://www.w3.org/2000/svg" xmlns:xlink="http://www.w3.org/1999/xlink" viewBox="0 0 400 300" width="406" height="306" class="illustration styles_illustrationTablet__1DWOa"><defs><linearGradient id="linear-gradient" x1="144.83" y1="213.63" x2="127.09" y2="239.89" gradientUnits="userSpaceOnUse"><stop offset="0" stop-color="#da2e81"></stop><stop offset="1" stop-color="#ef7575"></stop></linearGradient><linearGradient id="linear-gradient-2" x1="147.37" y1="205.63" x2="156.31" y2="195.52" gradientUnits="userSpaceOnUse"><stop offset="0" stop-color="#fff" stop-opacity="0"></stop><stop offset="1" stop-color="#ff6a00"></stop></linearGradient></defs><title>PP_</title><path d="M192.34,288.42l-165.77-98c-5.28-3-9.8-7.83-4.66-11L188.28,83.55c2.5-1.55,6.29-2.56,8.82-1.09l174,101c5.28,3.06,6.22,11.63.94,14.69L214.19,288.26A22,22,0,0,1,192.34,288.42Z" fill="#ef7575"></path><path d="M105.37,187.94l-39.9,23.57s77.53,45.75,99.83,59L203.76,246" fill="url(#linear-gradient)"></path><path d="M93.36,189.52l2.85,1.69,121.5-69.59L310,177.05l4.21-1.26,0,5a2.63,2.63,0,0,1-1.31,2.6L196.5,250.17a11,11,0,0,1-10.84,0l-89.9-50.53a4.7,4.7,0,0,1-2.33-5Z" fill="#68e1fd"></path><path d="M93.36,189.52l2.85,1.69,121.5-69.59L310,177.05l4.21-1.26,0,5a2.63,2.63,0,0,1-1.31,2.6L196.5,250.17a11,11,0,0,1-10.84,0l-89.9-50.53a4.7,4.7,0,0,1-2.33-5Z" fill="#68e1fd"></path><path d="M93.36,189.52l2.85,1.69,121.5-69.59L310,177.05l4.21-1.26,0,5a2.63,2.63,0,0,1-1.31,2.6L196.5,250.17a11,11,0,0,1-10.84,0l-89.9-50.53a4.7,4.7,0,0,1-2.33-5Z" fill="#124577" opacity="0.39"></path><path d="M312.84,177.22,196.5,244a11,11,0,0,1-10.84,0l-89.9-50.53a4.72,4.72,0,0,1,0-8.21l122-69.86,95.18,57.2A2.64,2.64,0,0,1,312.84,177.22Z" fill="#68e1fd"></path><polygon points="299.04 174.44 199 231.83 110.31 181.98 211.75 122.41 299.04 174.44" fill="#fff"></polygon><ellipse cx="143.76" cy="209.71" rx="4.43" ry="2.41" fill="#124577" opacity="0.39"></ellipse><path d="M166,185a4.93,4.93,0,0,1-2.14-3.63l-29.67,19.05L153.25,211h0c.08-.36,23.54-18.5,23.54-18.5C169.86,188.83,172.35,189.55,166,185Z" opacity="0.32" fill="url(#linear-gradient-2)"></path><path d="M171.91,88.18s2.1-3.75,2.68-4.08a6,6,0,0,1,2.46-1c.51.12,0,1.42,0,1.42s5-1.28,5.51-.9-.51,2.13-1.45,3.18-7.56,4.28-7.56,4.28Z" fill="#ffb7a2"></path><path d="M182,84.12l3.39-6a.42.42,0,0,0-.52-.59l-4.67,1.91a1.61,1.61,0,0,0-.79.7l-3.15,5.57,0,0C178.16,85,180.11,84.68,182,84.12Z" fill="#42342d"></path><path d="M166,49s-6.08-.6-9.25,4.15S146.07,75.48,148,76.95s12.33,3.17,17.42,1.7,4.86-13.35,4.86-13.35" fill="#f47c2c"></path><path d="M167.77,171.48s-.33,9,1.32,11.74,9.87,7.32,7.7,9.25-7.29,1-9-1.16a42.66,42.66,0,0,1-3-4.65l0,3.41s-3.42-2-3.42-2.17-.79-20.34-.79-20.34" fill="#42342d"></path><path d="M155.31,175.27s-.33,9,1.33,11.7,10.32,8.94,8.13,10.86-7.3.15-9.42-2.48a31.07,31.07,0,0,1-3.1-4.95l0,3.4s-3.45-2-3.45-2.17-.79-20.28-.79-20.28" fill="#42342d"></path><path d="M171.63,99.36c.44,1.13,4.46,67.13.22,75.53a21.35,21.35,0,0,1-11.21,2.37l-1.39,4.92s-10.42,3.23-17.94.09c0,0,3.6-68.74,8.92-81.48" fill="#748de8"></path><path d="M173.16,85.48q.14-2.72.23-5.45c.1-3.25.76-7.76-1.51-10.47-1.5-1.8-4-2.07-6-2.8A8,8,0,0,0,163,66.3a9.28,9.28,0,0,0-1.84.41c-2.25,0-5.22,1.87-7.29,2.87-1,.5-1.58,3.69-2.45,4.44-1.88,4.51-2.31,4.84-2.4,9.77a1,1,0,0,0-.13.25c-.48,1.52-.22,6.87.17,11.93,0,.1,0,.2,0,.3l0-.06c.18,2.31.39,4.55.56,6.32,7,2.8,14.86,1.83,22-.43.55-.17.81-7.94.9-8.84C172.83,90.67,173,88.07,173.16,85.48Z" fill="#ffc931"></path><path d="M172,55.19c.3.16-1.14,14.26-6.81,12.94s-5.63-6-5.5-7.22,2.79-4.17,3.67-5.32S170.73,54.5,172,55.19Z" fill="#ffb7a2"></path><path d="M173.41,53.7c-.73-3.55-7-6.26-12.8-3.53-3.61,1.7-7.16,11.52-3.16,13.51s3,1,3,1a4.84,4.84,0,0,1-.15-.74.66.66,0,0,1-.05-.31c0-.09,0-.18,0-.26s0-.13,0-.19a12.38,12.38,0,0,1,3-7.16c1.77-1.77,4.18-1.66,6.48-1.33a7.25,7.25,0,0,1,2.23.46l-.36,3.66A4.86,4.86,0,0,0,173.41,53.7Z" fill="#f47c2c"></path><path d="M172.05,57.54l-5.23-.42V55.39l-1.07,1.82-1.53-.38s-2.6,8.06-3.81,7.88-1.74-4.16-1.28-6.24,2.95-6.09,7.11-6.11S173,53.73,172.05,57.54Z" fill="#f47c2c"></path><path d="M164.57,87.35a49.65,49.65,0,0,1-6.16,1.38c-.67,0-1.47-.17-1.7-.8a1.79,1.79,0,0,1,0-.73,67.14,67.14,0,0,1,1.06-8.39c.38-2.48.81-5.87-.42-8.19-1.84-3.44-5.45-.19-6.81,1.91C148.25,76,148,81,147.86,85c-.54,13.64,2.79,14.22,7.39,14.08S173.87,95.47,174,93.6c.08-1.19-1-4.57-2.14-6.79C171.35,85.84,167.89,86.54,164.57,87.35Z" fill="#ffb531"></path><path d="M164.29,115.14q-1,31.14-4.3,62.14c-.07.64.93.63,1,0q3.27-31,4.3-62.14C165.31,114.5,164.31,114.5,164.29,115.14Z" fill="#fff"></path><path d="M272.1,70.11a2.24,2.24,0,0,1,.37,1.25l-.54,31.8c0,.73-.54,1.1-1.15.76l-46-26.59a2.55,2.55,0,0,1-1.13-2l.53-31.48a.86.86,0,0,1,.32-.75c.18-.17.47-.2.86,0l45.77,26.1.26.15A2.06,2.06,0,0,1,272.1,70.11Zm-2.43,30.36.47-28-21.2,5.35a.83.83,0,0,1-.58-.13,1.91,1.91,0,0,1-.58-.52L234.67,59.09l-8-11-.32-.41-.46,27.5,43.74,25.26m-2.32-30.63L229.14,48.06l.47.68q3.76,5.16,7.5,10.33l7.64,10.53c1.06,1.46,2.73,3.3,3.76,5l.1-.06a9.48,9.48,0,0,1,2.62-.66l7.6-1.91,8.5-2.14m-18.92,4.83-.06,0c-.14-.08-.24-.06-.29,0s-.06.1,0,.12.17,0,.36-.07" fill="#606060"></path><ellipse cx="272.91" cy="67.94" rx="7.21" ry="9.69" transform="translate(-8.32 69.96) rotate(-14.39)" fill="#ef5407"></ellipse><path d="M272.89,63.82h.65V72h-1.48V65.89l-1.58.94v-1.6Z" fill="#fff"></path><path d="M208.73,138.76l58.71,35a1.5,1.5,0,0,0,1.51-2.59l-58.71-35a1.5,1.5,0,0,0-1.51,2.59Z" fill="#754c24"></path><path d="M192,146.26l58.71,35a1.5,1.5,0,0,0,1.51-2.59l-58.71-35a1.5,1.5,0,0,0-1.51,2.59Z" fill="#754c24"></path><path d="M176.39,156.25l58.71,35a1.5,1.5,0,0,0,1.51-2.59l-58.71-35a1.5,1.5,0,0,0-1.51,2.59Z" fill="#754c24"></path><ellipse cx="275.55" cy="177.76" rx="5.72" ry="2.94" fill="#ef5407"></ellipse><ellipse cx="259.77" cy="185" rx="5.72" ry="2.94" fill="#ef5407"></ellipse><ellipse cx="243.42" cy="196.18" rx="5.72" ry="2.94" fill="#ef5407"></ellipse><path d="M108.21,45.85c5.84-2.6,10.42,1.54,10.22,9.23s-5.09,16-10.93,18.63a9,9,0,0,1-2.34.7c-4.68.69-8.06-3.3-7.89-9.93a21,21,0,0,1,.43-3.69C99.06,54.28,103.3,48,108.21,45.85Zm1.63,17.92a6.84,6.84,0,0,0,1-3.43c.06-2.2-.8-3.28-2.24-2.64l-.38.2L110.51,53l0-.78-5.38,2.39-.05,2,3-1.33-1.86,4,.65.94a2.47,2.47,0,0,1,.82-.63c.87-.39,1.46.12,1.42,1.52a3,3,0,0,1-1.54,2.73c-.79.35-1.28,0-1.47-1.13l-1.64,1a2.72,2.72,0,0,0,.92,2.15,2.07,2.07,0,0,0,2.14,0,5.13,5.13,0,0,0,2.31-2.14" fill="#ef5407"></path><g style="isolation: isolate;"><path d="M110.53,52.2l0,.78L108.2,57.9l.38-.2c1.44-.64,2.3.44,2.24,2.64a6.84,6.84,0,0,1-1,3.43,5.13,5.13,0,0,1-2.31,2.14,2.07,2.07,0,0,1-2.14,0,2.72,2.72,0,0,1-.92-2.15l1.64-1c.2,1.11.68,1.48,1.47,1.13a3,3,0,0,0,1.54-2.73c0-1.4-.55-1.91-1.42-1.52a2.47,2.47,0,0,0-.82.63l-.65-.94,1.86-4-3,1.33.05-2Z" fill="#fff"></path><path d="M90.95,51.72c2.36-1,4.21.63,4.13,3.74L95,60.51a8.83,8.83,0,0,1,2.76.28,21,21,0,0,0-.43,3.69c-.17,6.63,3.21,10.62,7.89,9.93q0,.12,0,.24L105,81.72a22.48,22.48,0,0,0,2.28,11.17l3.47,6.43a1.79,1.79,0,0,1,0,1.41,2,2,0,0,1-.95,1.13L69.13,119.91a.65.65,0,0,1-.91-.3,1.83,1.83,0,0,1,0-1.42l3.88-9.69A39.54,39.54,0,0,0,75.05,95L75.23,88C75.46,79,80.16,69.49,86.4,64.31l.13-5.06C86.6,56.15,88.59,52.77,90.95,51.72Z" fill="#68e1fd"></path></g><path d="M96.11,110.71c-1.29,3.86-3.9,7.31-6.88,8.63a4.58,4.58,0,0,1-6.59-2.65Z" fill="#68e1fd"></path></svg>