<svg xmlns="http://www.w3.org/2000/svg" xmlns:xlink="http://www.w3.org/1999/xlink" viewBox="0 0 400 300" width="406" height="306" class="illustration styles_illustrationTablet__1DWOa"><defs><linearGradient id="linear-gradient" x1="306.35" y1="203.06" x2="273.52" y2="221.54" gradientUnits="userSpaceOnUse"><stop offset="0" stop-color="gray"></stop><stop offset="1" stop-color="#fff"></stop></linearGradient><linearGradient id="linear-gradient-2" x1="123.03" y1="209.6" x2="93.66" y2="227.45" xlink:href="#linear-gradient"></linearGradient><linearGradient id="linear-gradient-3" x1="171.46" y1="253.07" x2="161.5" y2="264.13" xlink:href="#linear-gradient"></linearGradient><linearGradient id="linear-gradient-4" x1="240.32" y1="178.23" x2="211.57" y2="204.83" xlink:href="#linear-gradient"></linearGradient></defs><title>a</title><g style="isolation: isolate;"><g id="Layer_2" data-name="Layer 2"><polygon points="47.9 201.16 197.57 287.57 339.37 205.7 188.67 120.05 47.9 201.16" fill="#efefef"></polygon><path d="M288.78,196.55c-12.17,7.1-20.87,11.86-39.58,22.55,14.17,8.61,25.15,16.53,26.74,17.47L318,211.88C314.73,210.16,303.93,204,288.78,196.55Z" fill="url(#linear-gradient)" style="mix-blend-mode: multiply;"></path><path d="M103.51,232.7l35.77-20.94c-2.72-1.43-8.07-6.39-18.12-11.64a.52.52,0,0,1-.27.33q-14.5,8-28.93,16c-2.26,1.27-5.71,3.65-7.93,5C90.48,225,95.35,228.56,103.51,232.7Z" fill="url(#linear-gradient-2)" style="mix-blend-mode: multiply;"></path><path d="M160.18,265.77c2.81,1.91,6.4,3.58,9.16,5.5l18.43-10.82c-2.86-1.51-12.32-6.86-25.59-13.42-5.91,3.45-10.89,6.27-16.94,9.69C150.29,259.56,155.36,262.5,160.18,265.77Z" fill="url(#linear-gradient-3)" style="mix-blend-mode: multiply;"></path><path d="M40.58,79.31l.76,41.91a2.64,2.64,0,0,0,3.81,2.31l35.61-17.74a3.49,3.49,0,0,0,1.93-3.19l-.76-41.93a2.85,2.85,0,0,0-4.15-2.49l-35.31,18A3.49,3.49,0,0,0,40.58,79.31Z" fill="#68e1fd"></path><path d="M76.51,85.66c-6.78,1.91-4.44,9.44-9.31,13.44C61.27,104,59,90.15,51.76,91c-8.73,1-10.42,30.2-10.42,30.2,1.38,3.31,3.81,2.31,3.81,2.31l37.59-18.73-.29-16.13C80.87,86.84,78.92,85.42,76.51,85.66Z" fill="#68e1fd"></path><path d="M76.51,85.66c-6.78,1.91-4.44,9.44-9.31,13.44C61.27,104,59,90.15,51.76,91c-8.73,1-10.42,30.2-10.42,30.2,1.38,3.31,3.81,2.31,3.81,2.31l37.59-18.73-.29-16.13C80.87,86.84,78.92,85.42,76.51,85.66Z" fill="#181816" opacity="0.3"></path><path d="M256.26,178v0c-1.13,0-2.72,1.2-3.75,1.7L249.67,181s-1.89,7-3,9.61-5,8.21-3.62,10.31a6.29,6.29,0,0,0,8.38,1.68c3.57-2,3.47-8.48,4.76-11,1.07-2.1.57-6.56.57-7.52A24.68,24.68,0,0,0,256.26,178Z" fill="#181816"></path><path d="M226.94,165.22v0c-1.13,0-2.72,1.2-3.75,1.7l-2.84,1.39s-1,7.66-3,9.61-9.55,6.07-8.2,8.17a6.09,6.09,0,0,0,8.2,1.89c3.57-2,5.9-6,8.45-7,2.19-.87,1.26-6.55,1.35-8.46A26.91,26.91,0,0,0,226.94,165.22Z" fill="#181816"></path><path d="M221.84,93.55s-4.86,25.9-4.42,40.1.69,31.59,1.77,39.29c0,0,9.41,1.31,12.61-1.51,0,0,.95-49.78,1-49.5,1.44,6.55,8.2,40.1,8.92,42.29s4.19,19.88,4.19,19.88a17,17,0,0,0,13.39-2.25s-1.17-25.47-3.35-32.63-9.78-52.16-13.48-55.68" fill="#68e1fd"></path><path d="M221.84,93.55s-4.86,25.9-4.42,40.1.69,31.59,1.77,39.29c0,0,9.41,1.31,12.61-1.51,0,0,.95-49.78,1-49.5,1.44,6.55,8.2,40.1,8.92,42.29s4.19,19.88,4.19,19.88a17,17,0,0,0,13.39-2.25s-1.17-25.47-3.35-32.63-9.78-52.16-13.48-55.68" fill="#181816" opacity="0.67"></path><path d="M242.23,95.63s8.33-24.21,5-29.75-16.85-9.9-23.32-9.34-2.32,38.81-1.3,39.09S233.15,102.47,242.23,95.63Z" fill="#f7931e"></path><path d="M245,63.39l-10.1-4.19q-2.75,13.32-5.7,26.59l14.11,2.48s8.4-4.62,9.7-12S245.36,63.73,245,63.39Z" fill="#f7931e"></path><path d="M224.61,71.12s-1.35-13.23-1.35-14.39a31.54,31.54,0,0,0-10.82,5.53,35.65,35.65,0,0,0-4.57,4.22,11.37,11.37,0,0,0-2.35,3.14,8.32,8.32,0,0,0-.12,4.29,33.29,33.29,0,0,0,3.31,9.41A50.13,50.13,0,0,0,214.78,93c.74.91,3.12,4.28,4.68,3.74,3.12-1.09,4.41-4.72,4.41-4.72s-1.44-2.83-3-6.34c-.92-2.07-5.06-6.78-5.62-10a16.21,16.21,0,0,1,1.33-1.58C218.64,72.08,222.05,72.45,224.61,71.12Z" fill="#f7931e"></path><path d="M225.79,57.47l2,10.42,2.88-3.35,2.18,4.18,5.84-7.92S229.74,56.62,225.79,57.47Z" fill="#ed6b00"></path><path d="M237,52.82c-1.51,1.68-4.43.92-6.35.49-2.33-.53-5-1.94-4.8-4.72,0-.42-.62-.42-.65,0-.21,2.89,2.41,4.63,4.91,5.26,2.22.56,5.58,1.39,7.35-.57C237.77,53,237.31,52.51,237,52.82Z" fill="#009245"></path><path d="M224.61,46.85s0,14.14,5.19,15.06c5.7,1,8.9-5.46,8.9-5.46s.73-12.49-4.93-13.59S224.77,45,224.61,46.85Z" fill="#fbb5ad"></path><path d="M234.68,55s1.37-5.43,2.89-3.64-2.46,5.69-2.46,5.69" fill="#fbb5ad"></path><path d="M236.06,41.09s5.06.55,6.54,4.58-2.31,12-5,13.3l3.29-7-.16-4.79Z" fill="#5c2e2e"></path><path d="M242.51,47.47c-.41-2.82-2.28-4.19-4.73-5.64l-.61-.33a4,4,0,0,0,1.1-1.42.37.37,0,0,0-.32-.56,2.32,2.32,0,0,0-1.67.81,5.49,5.49,0,0,0-1.14-1.56.38.38,0,0,0-.62.16,2,2,0,0,0,.09,1.7,10.76,10.76,0,0,0-7.47,1.14,6.19,6.19,0,0,0-2.05,2,3.69,3.69,0,0,0-2,.36,3.38,3.38,0,0,0-1.91,3.61c.37,1.7,2.17,2.26,3.7,2a4.69,4.69,0,0,0,2.14-1c-.46.77-.69,1.76.8,2.1,2.59.59,3.83-.95,4,.34.13,1.05,1.59,1.64,2.65,1.66.08.16.27.59.5,1.18a3.13,3.13,0,0,1,1.62-.09.4.4,0,0,1,.64.06c.9,1.54.69,3.22.34,5a14.25,14.25,0,0,0,3.4-4.31A12.72,12.72,0,0,0,242.51,47.47Zm-7.36-7.58.11.16a.37.37,0,0,0,0,.12c0,.12.09.24.14.35A1.36,1.36,0,0,1,235.15,39.9Z" fill="#5c2e2e"></path><polygon points="228.59 67 230.12 69.97 232.26 67.51 230.71 64.54 228.59 67" fill="#723100"></polygon><path d="M230.12,70s2.14,15,4,24.79L231.4,100l-3.57-4.43S226.37,85.32,230.12,70Z" fill="#723100"></path><polygon points="230.43 95.6 228.41 73.73 213.36 74.08 215.47 95.6 230.43 95.6" fill="#68e1fd"></polygon><path d="M235.55,87,229,82.1v1.84s-5.92-2.65-6.21-1.49.77,5,1.77,5.37,5.18,1.69,5.18,1.69l3.3,1Z" fill="#fbb5ad"></path><path d="M253,73.73s4.26,16.44,1.33,19.81-21.93-.28-22.11-2,2.42-7.23,2.42-7.23l10.61,1.16" fill="#f7931e"></path><path d="M220.64,95.6s4-.67,4.77,1.53c.43,1.16-2.64,0-2.64,0l-2.17,6.45a4.68,4.68,0,0,1-1-2.87,22.07,22.07,0,0,1,.4-4.4Z" fill="#fbb5ad"></path><path d="M102.89,202.86c2.19,1.45,3.83,2.3,3.83,2.3,1.74,0,5,.38,4-1.9a21.21,21.21,0,0,0,4.29,5.06c1.89,1.63,12.5,3.15,8.86,9.46-1.88,3.25-20.29-6.07-20.75-8.28A36.11,36.11,0,0,1,102.89,202.86Z" fill="#8c6864"></path><path d="M110.84,192.13a36.57,36.57,0,0,0-.27,9.54c.1.69.19,1.43.33,2.17l-8.07-1.36V192.13Z" fill="#f7931e"></path><path d="M102.89,200.63c2.19,1.45,3.83,2.3,3.83,2.3,1.74,0,5,.38,4-1.9a21.21,21.21,0,0,0,4.29,5.06c1.89,1.63,12.55,6.87,8.1,9.64-3.31,2.06-19.53-6.25-20-8.46A36.11,36.11,0,0,1,102.89,200.63Z" fill="#56403d"></path><path d="M106.31,203.07c-.08-.59-1.26-3.53-.3-4.21s5-1.69,5.43-.54,0,5.16,0,5.16" fill="#56403d"></path><path d="M118.31,196.84c2.19,1.45,3.83,2.3,3.83,2.3,1.74,0,5,.38,4-1.9a21.21,21.21,0,0,0,4.29,5.06c1.89,1.63,12.5,3.15,8.86,9.46-1.88,3.25-20.29-6.07-20.75-8.28A36.11,36.11,0,0,1,118.31,196.84Z" fill="#8c6864"></path><path d="M126.26,186.11a36.57,36.57,0,0,0-.27,9.54c.1.69.19,1.43.33,2.17l-8.07-1.36V186.11Z" fill="#f7931e"></path><path d="M118.31,194.61c2.19,1.45,3.83,2.3,3.83,2.3,1.74,0,5,.38,4-1.9a21.21,21.21,0,0,0,4.29,5.06c1.89,1.63,12.55,6.87,8.1,9.64-3.31,2.06-19.53-6.25-20-8.46A36.11,36.11,0,0,1,118.31,194.61Z" fill="#56403d"></path><path d="M121.73,197c-.08-.59-1.26-3.53-.3-4.21s5-1.69,5.43-.54,0,5.16,0,5.16" fill="#56403d"></path><path d="M131.66,103.07s2.53,61.07-2.47,86.74c0,0-1,2.86-12.93,1.2l-.8,5.34s-8.38,2.28-16.31-1c0,0-3.31-59.32,6.63-93.79" fill="#311e69"></path><path d="M130.78,82.12c2.07-.66-2-11.58-2.36-12.95a7.32,7.32,0,0,0-1-2.39c-1.42-1.94-4.21-1-6.2-1a50,50,0,0,0-7.86.7A13.21,13.21,0,0,0,109.2,68c-4.08,5.72-5.5,12.85-5.93,19.79-.24,3.82-.22,7.67-.2,11.5a56.91,56.91,0,0,0,.41,7.29,1.88,1.88,0,0,0,.92,1.38,10.54,10.54,0,0,0,4.76,1.48c7.19.29,15.9,0,21.52-4.68a16.87,16.87,0,0,0,1-1.52l-.92-21.12Z" fill="#68e1fd"></path><polyline points="123.94 91.82 123.94 83.71 140.35 76.79 145 78.62 145 101.47 127.26 109.66 123.5 107.28" fill="#42210b"></polyline><path d="M103.08,99.31c-4.23-3.53-6.76-6.58-2.92-20.15,3.27-11.58,13.2-12.65,13.2-12.65" fill="#68e1fd"></path><path d="M125.37,54.67s3.16,11.55-2.06,14.08-8.89-1.24-10.47-4.69-1-11.53,5.77-12.35C124.48,51,125.37,54.67,125.37,54.67Z" fill="#f7931e"></path><path d="M126.39,52.48c.55-1.41.78-3.93-.87-4.71a3.6,3.6,0,0,0-3.72.68,5.14,5.14,0,0,0-2-.95,8.13,8.13,0,0,0-7.63,1.65,1.15,1.15,0,0,1-.31.22,1.34,1.34,0,0,1-.49.06c-4.1.07-5,4.72-4.28,7.88a15.85,15.85,0,0,0,5,8.5,9.84,9.84,0,0,0,3.72,1.89.31.31,0,0,0,.39-.32.38.38,0,0,0,.12-.54,3.7,3.7,0,0,1-.35-2.24.34.34,0,0,0-.1-.3.37.37,0,0,0-.3-.62,2.89,2.89,0,0,1-2.41-.84c-.38-.4-.7-1.18.05-1.37a.89.89,0,0,1,.81.22,3,3,0,0,0,.39.53.37.37,0,0,0,.21.11c.28.09.64-.14.46-.45a3,3,0,0,0-.45-.61,2.12,2.12,0,0,1,.39-2.65c1-.85,1.85-.39,3-.34a1.41,1.41,0,0,0,1.54-1,5.27,5.27,0,0,0-.17-1.37,1.67,1.67,0,0,1,1-1.63c1.17-.45,1.93.53,2.79,1.13a3,3,0,0,0,2.52.51,2.08,2.08,0,0,0,1.12-3.3A.36.36,0,0,0,126.39,52.48Zm-7.1,1.64a1.17,1.17,0,0,1,.54-.46,1,1,0,0,0,.21-.13l.07,0,.11.05A2.42,2.42,0,0,0,119.29,54.11Zm6.61-2.44-.05,0a3.32,3.32,0,0,0,.14-.38C126,51.4,125.93,51.54,125.9,51.67Z" fill="#935542"></path><path d="M117.46,191q1.88-24.74,2.9-49.53.36-9,.61-17.94a.4.4,0,0,0-.8,0q-.89,31.94-3.23,63.81c-.09,1.2-.2,2.41-.29,3.61Z" fill="#fff"></path><path d="M132.6,95.85s.76-1.83-.5-2.53-7.13,0-7.13,0l1.13-2c.14-.39-.06-.59-.55-.67-1.35-.24-2.43,1.39-3,2.39a3.44,3.44,0,0,0-.46,1.2c0,.32,0,.82-.31,1a2.25,2.25,0,0,1-.94-.19c-.44,2.15-.95,4.28-1.38,6.42l2.51.68s8.13,2.59,8.95,1.84a3.78,3.78,0,0,0,1-2l1-.9c1-.9-.45-2.23-.45-2.23a1.93,1.93,0,0,0,1.71-1.39C134.65,96.11,132.6,95.85,132.6,95.85Z" fill="#f7931e"></path><path d="M125.72,95a43.7,43.7,0,0,0,7,.55c.24,0,.2.37,0,.38a43.7,43.7,0,0,1-7-.55C125.45,95.36,125.48,95,125.72,95Z" fill="#42210b"></path><path d="M125.15,97.48A33.25,33.25,0,0,0,132.77,99a.19.19,0,0,1,0,.38A33.69,33.69,0,0,1,125,97.83C124.79,97.76,124.92,97.41,125.15,97.48Z" fill="#42210b"></path><path d="M125.27,100.13a38.62,38.62,0,0,0,6.71,1.78.19.19,0,0,1,0,.38,39,39,0,0,1-6.81-1.8C124.91,100.42,125,100.07,125.27,100.13Z" fill="#42210b"></path><path d="M121.68,91.76a36.17,36.17,0,0,1-10.13-3.41.49.49,0,0,0,.28-.45,26.71,26.71,0,0,1,.64-5.46c.15-.67-.88-1-1-.28a28.12,28.12,0,0,0-.68,5.74s0,0,0,0l-.57-.31a.54.54,0,0,0-.54.92,37,37,0,0,0,11.28,4.15q-.75,5-1.69,9.89a.53.53,0,0,0,.09.43c-2-.13-9.84-.81-16.25-3.71l.41,7.29s9.57.82,16.07-3.4a.47.47,0,0,0,.72-.32q1-5.21,1.78-10.46A.54.54,0,0,0,121.68,91.76Z" fill="#311e69"></path><path d="M225.45,116.52a1.19,1.19,0,0,0-.85-1.11,4.76,4.76,0,0,0-1.13-.19c.59-.4.79-.84.38-1.31-2.13-2.49-14.25,2.93-15.46.72-.14-.26-.3-.52-.46-.78s-.23-.55-.37-.81a4.48,4.48,0,0,0-1.72-2.28,1.17,1.17,0,0,0-1.7,1.3,24.18,24.18,0,0,0,1.93,5.3,42.79,42.79,0,0,1-1.69,7.8c-.45,1.42,1.78,2,2.23.61v0a1.24,1.24,0,0,0,.5.3,1.19,1.19,0,0,0,1.29.27,1.16,1.16,0,0,0,2.26.33c.76-2.37,1.77-5,4-6.21h1.06c2.38,0,4.76-.08,7.14-.23a1.22,1.22,0,0,0,.9-1.9C224.68,118.12,225.46,117.66,225.45,116.52Z" fill="#ce4823"></path><path d="M175.32,251.47c-.09-3.37-3.89-3.55-4.92-5.86a6.06,6.06,0,0,1-.25-2.83,1.47,1.47,0,0,1-1.46-1.57,18.33,18.33,0,0,1,1-5l-5.25-4.85s-4.21,6.72-4.6,8.18-.69,12.66-.35,13.74,2.23.82,3.18.58,0-8.8.91-8.35,1.46,7.8,2.67,9.44,8.58.94,8.58.94S175.41,254.84,175.32,251.47Z" fill="#273238"></path><path d="M170,241.5c-.92-6.35,1.25-17.69,1.25-17.69l-8.69.66-1.39,12.71a1.38,1.38,0,0,1,.29.73.79.79,0,0,0,0,.17l.16.27c.56.64,2.09.72,2.78,1.09,1.52.83,1.85,2.21,2,3.76.36,2.81.36,7.1,8,5.94C174.39,249.14,170.88,247.84,170,241.5Z" fill="#ce4823"></path><path d="M187.82,256.66c-.26-3.36-4.06-3.36-5.19-5.62a6.06,6.06,0,0,1-.39-2.81,1.47,1.47,0,0,1-1.54-1.5,18.33,18.33,0,0,1,.76-5L176,237.15s-3.88,6.91-4.2,8.39-.08,12.68.32,13.74,2.26.71,3.2.43-.39-8.79.51-8.39,1.84,7.72,3.13,9.3,8.62.52,8.62.52S188.08,260,187.82,256.66Z" fill="#273238"></path><path d="M182,247c-1.22-6.29.39-17.73.39-17.73l-8.65,1.08L173,243.08a1.38,1.38,0,0,1,.33.71.79.79,0,0,0,0,.16l.18.26c.59.61,2.12.62,2.83,1,1.56.75,2,2.12,2.16,3.66.5,2.79.7,7.08,8.28,5.54C186.78,254.38,183.21,253.25,182,247Z" fill="#ce4823"></path><path d="M162.72,113.73s-5,1.47-7.33,13.75-3.66,19.18-1.08,22.84,11.56,9.7,11.56,9.7l10.58-14.2" fill="#faca66"></path><path d="M165.08,143.11s-12-25.09-2.36-29.38,21.58,2,23.57,8.34-.91,25.39-.91,25.39S172.69,147.82,165.08,143.11Z" fill="#faca66"></path><path d="M184.66,119.13s8.33,14,14.74,12.07l5.45-12.38s11,3.41,10,10.14c0,0-9.83,16.84-16.88,17.8s-15.76-8-15.76-8" fill="#faca66"></path><path d="M161.83,232.17c9.4,4.83,14.78,9.53,25.16,7.13,2.94-.71,5.57-42.74,5.58-44.89.07-13.83,1.93-22.65-1.57-36.06-.49-1.87-3.27-12.26-5.38-12.53l-20.54-2.72s-4,7-4.2,22.1c-.12,10.07,1.29,20.07,1.51,30.12a86.15,86.15,0,0,1-1.77,17.38c-.54,2.93-1.53,6.19-2.23,9.4a54.52,54.52,0,0,0-.75,7.45A30.64,30.64,0,0,0,161.83,232.17Z" fill="#68e1fd"></path><path d="M165.82,115.63c-.41-.22-2.42-4,.28-5s11.59,0,11.53,1.62,0,4.09,0,4.09A15.09,15.09,0,0,1,165.82,115.63Z" fill="#e5572c"></path><path d="M165.35,142.11A57.46,57.46,0,0,1,160.78,122c0-.74-1.19-.74-1.15,0a59.08,59.08,0,0,0,4.73,20.73C164.65,143.37,165.64,142.78,165.35,142.11Z" fill="#ce4823"></path><path d="M155.54,105.28c-2.4,4.16,3.25,12.53-2.38,14.87a11.77,11.77,0,0,1-4,.62,10,10,0,0,0-7.53,3.3c-3,3.57-2.79,9.45-.09,13.16,3.08,4.23,8.32,4.78,12.83,2.77,10.66-4.74,3.85-25,11.88-30.43l.39-9.12S158.6,100,155.54,105.28Z" fill="#935542"></path><path d="M180.53,98.09s-.21,13.12-2.78,14.77-9.67-.8-10-4.44S180.53,98.09,180.53,98.09Z" fill="#ce4823"></path><path d="M173.29,91.8s-4.53-1.78-11.12,2-4.43,16,3.26,18.5,9.65-5,11.1-8,4-4.09,3.95-5.49S180.33,91.59,173.29,91.8Z" fill="#935542"></path><ellipse cx="303.5" cy="85.95" rx="12.34" ry="19.23" transform="translate(-7.65 34.12) rotate(-6.35)" fill="#ff831d"></ellipse><path d="M299.67,83.21l2.61,2.61V74.51a1.47,1.47,0,0,1,2.94,0V89.44a1.49,1.49,0,0,1-2.46,1l0,0,0,0-5.12-5.12A1.47,1.47,0,0,1,299.67,83.21Z" fill="#56403d"></path><path d="M283.6,170v37.91s36.43,2,36.43,0V170" fill="#68e1fd"></path><ellipse cx="301.82" cy="207.59" rx="18.22" ry="8.32" fill="#68e1fd"></ellipse><ellipse cx="301.82" cy="170.01" rx="18.22" ry="8.32" fill="#3129a3"></ellipse><path d="M290.46,176.48l.13.07c.7.24,1.41.46,2.13.65l-5-41.51a2.49,2.49,0,0,0-2.54.47l5.08,40.25Z" fill="#f78b72"></path><path d="M296.12,177.77l1.54-39a2.49,2.49,0,0,0-2.58.06l-1.26,38.57A20.42,20.42,0,0,0,296.12,177.77Z" fill="#f78b72"></path><path d="M301.82,178.33l5-40.62L317,143.07l-4.1,34.12A31,31,0,0,1,301.82,178.33Z" fill="#fcb749"></path><path d="M256.8,189.41c-6.36-3.47-21.73-5.91-34.5-12.22-14.73,8.59-25.26,14.36-47.92,27.3,17.15,10.42,30.44,20,32.37,21.14l44.71-23C251.42,200.37,256.76,191.69,256.8,189.41Z" fill="url(#linear-gradient-4)" style="mix-blend-mode: multiply;"></path></g></g></svg>